# xmcd CD database file generated by freedbAccess_ocx
#
# Track frame offsets:
#       182
#       17417
#       34212
#       50625
#       66412
#       79362
#       96425
#       108562
#       122337
#       142950
#       155337
#       165975
#
# Disc length: 2414 seconds
#
# Revision: 0
# Processed by: cddbd v1.4PL0 Copyright (c) Steve Scherf et al.
# Submitted via: CDnGo 1.95
#
DISCID=9a096c0c
DTITLE=Tennessee - Ya está bien
DYEAR=1994
DGENRE=Blues
TTITLE0=Confia en mi
TTITLE1=Lo tuyo no tiene perdón
TTITLE2=Corazón solitario
TTITLE3=Si volviera a ocurrir... 
TTITLE4=No te cortes y ven a bailar
TTITLE5=Escucha tu corazón
TTITLE6=Quedate
TTITLE7=Cinco años
TTITLE8=Por culpa de una apuesta
TTITLE9=Elige a uno de los dos
TTITLE10=¡¡Ya está bien!!
TTITLE11=¡¡Vente al cine,ya!!
EXTD=
EXTT0=
EXTT1=
EXTT2=
EXTT3=
EXTT4=
EXTT5=
EXTT6=
EXTT7=
EXTT8=
EXTT9=
EXTT10=
EXTT11=
PLAYORDER=
